<svg version="1.1" class="job-icon" xmlns="http://www.w3.org/2000/svg" xmlns:xlink="http://www.w3.org/1999/xlink" x="0px" y="0px"
	 viewBox="0 0 248 261" style="enable-background:new 0 0 248 261;" xml:space="preserve">
<path d="M239.5,55.6l-25.6-25.6c-1.6-1.6-3.8-2.5-6-2.5h-12.5L180.9,5.8c-1.8-2.7-5-4.2-8.2-3.7c-3.2,0.4-5.9,2.7-7,5.8l-33,99.1
	c-14.4,8.2-69.7,45-69.7,125.2c0,4.7-3.8,8.5-8.5,8.5s-8.5-3.8-8.5-8.5v-67.5c0-4.9,3.1-27-8.7-40.9c-6-7.1-14.8-10.9-25.4-10.9
	c-4.7,0-8.5,3.8-8.5,8.5s3.8,8.5,8.5,8.5c5.5,0,9.6,1.6,12.4,4.8c6.4,7.5,5.6,22.7,4.8,27.9c-0.1,0.5-0.1,0.9-0.1,1.4v68.2
	c0,14.1,11.5,25.6,25.6,25.6S80,246.2,80,232.1c0-79.3,60.8-110.4,63.4-111.7c2.1-1,3.6-2.8,4.3-5l28.6-85.8l7.4,11.1
	c1.6,2.4,4.2,3.8,7.1,3.8h13.5L224,64.3l-6.6,26.2l-22.8,15.2c-3.1,2.1-4.5,6-3.4,9.6c0.3,1,7.1,24.5-7.9,53.2c-0.6,1.2-1,2.6-1,4
	v59.7c0,2.8,1.4,5.5,3.8,7.1l25.6,17c1.5,1,3.1,1.4,4.7,1.4c2.8,0,5.5-1.3,7.1-3.8c2.6-3.9,1.6-9.2-2.4-11.8l-21.8-14.5v-53
	c8.5-25.2,11.3-47.4,9.6-57.9l20.7-13.8c1.8-1.2,3-3,3.5-5l8.5-34.1C242.5,60.8,241.6,57.8,239.5,55.6z"/>
<path d="M156.6,170.6c-1-4.6-5.6-7.4-10.2-6.5c-4.6,1-7.5,5.6-6.5,10.2l12.8,57.8H97.1c-4.7,0-8.5,3.8-8.5,8.5
	c0,4.7,3.8,8.5,8.5,8.5h59.5l0.4,1.8c0.9,4,4.4,6.7,8.3,6.7c0.6,0,1.2-0.1,1.9-0.2c4.6-1,7.5-5.6,6.5-10.2L156.6,170.6z"/>
</svg>
