<svg version="1.1" class="bootcamp-icon" xmlns="http://www.w3.org/2000/svg" xmlns:xlink="http://www.w3.org/1999/xlink" x="0px" y="0px"
	 viewBox="0 0 248 261" style="enable-background:new 0 0 248 261;" xml:space="preserve">
<path d="M163.1,65.5V7H31.1v250.1h190.7V65.5H163.1z M99,106.6c10.2,10.2,20.8,20.8,31.1,31.1c11.6-11.6,22.9-22.8,34.2-34H151V89.1
	h38.8v39.1h-14.5v-13.6c-14.7,14.6-29.4,29.2-44.1,43.8c-10.8-10.9-21.4-21.5-32.3-32.4c-8.9,8.9-17.4,17.4-25.8,25.8
	c-3.3-3.4-6.6-6.7-9.7-9.9C75.1,130.4,87.1,118.5,99,106.6z M190.2,217.3H62.9V203h127.3V217.3z M190.2,188H62.9v-14.4h127.3V188z"
	/>
<path d="M177.9,10.1c13.3,13.6,26.3,26.9,39.7,40.4h-39.7V10.1z"/>
</svg>
