<svg version="1.1" class="svg-icon" xmlns="http://www.w3.org/2000/svg" xmlns:xlink="http://www.w3.org/1999/xlink" x="0px" y="0px"
	 viewBox="0 0 300 261" style="enable-background:new 0 0 300 261;" xml:space="preserve">
<path d="M287.1,110h-19.6V90.4c0-5.4-4.4-9.8-9.8-9.8h-98.2V60.9h49.1c5.4,0,9.8-4.4,9.8-9.8V11.8c0-5.4-4.4-9.8-9.8-9.8h-58.9
	c-5.4,0-9.8,4.4-9.8,9.8v39.3v29.5H41.6c-5.4,0-9.8,4.4-9.8,9.8V110H12.2c-5.4,0-9.8,4.4-9.8,9.8v127.6c0,5.4,4.4,9.8,9.8,9.8h274.9
	c5.4,0,9.8-4.4,9.8-9.8V119.8C296.9,114.4,292.5,110,287.1,110z M159.4,21.6h39.3v19.6h-39.3V21.6z M277.2,237.6h-216v-29.5
	c0-5.4-4.4-9.8-9.8-9.8c-5.4,0-9.8,4.4-9.8,9.8v29.5H22v-108h19.6c5.4,0,9.8-4.4,9.8-9.8v-19.6h196.4v19.6c0,5.4,4.4,9.8,9.8,9.8
	h19.6V237.6z"/>
<circle cx="51.4" cy="168.9" r="9.8"/>
<circle cx="90.7" cy="168.9" r="9.8"/>
<circle cx="130" cy="168.9" r="9.8"/>
<circle cx="169.2" cy="168.9" r="9.8"/>
<circle cx="208.5" cy="168.9" r="9.8"/>
<circle cx="90.7" cy="129.6" r="9.8"/>
<circle cx="130" cy="129.6" r="9.8"/>
<circle cx="169.2" cy="129.6" r="9.8"/>
<circle cx="208.5" cy="129.6" r="9.8"/>
<circle cx="247.8" cy="168.9" r="9.8"/>
<circle cx="90.7" cy="208.2" r="9.8"/>
<circle cx="130" cy="208.2" r="9.8"/>
<circle cx="169.2" cy="208.2" r="9.8"/>
<circle cx="208.5" cy="208.2" r="9.8"/>
<circle cx="247.8" cy="208.2" r="9.8"/>
</svg>
