<svg version="1.1" class="job-icon" xmlns="http://www.w3.org/2000/svg" xmlns:xlink="http://www.w3.org/1999/xlink" x="0px" y="0px"
	 viewBox="0 0 72 261" style="enable-background:new 0 0 72 261;" xml:space="preserve">
<path d="M50.9,73c-0.5-2.4-2.6-4.1-5-4.1h-20c-2.4,0-4.5,1.7-5,4.1l-20,100.2c-0.3,1.5,0.1,3,1.1,4.2
	c1,1.2,2.4,1.9,3.9,1.9h4.9v75.1c0,2.8,2.3,5.1,5.1,5.1s5.1-2.3,5.1-5.1v-75.1h29.9v75.1c0,2.8,2.3,5.1,5.1,5.1
	c2.8,0,5.1-2.3,5.1-5.1v-75.1h4.9c1.5,0,3-0.7,3.9-1.9c1-1.2,1.4-2.7,1.1-4.2L50.9,73z M30,79.1h11.7l18,90H12L30,79.1z"/>
<path d="M35.8,51.4C49.7,51.4,61,40.2,61,26.3C61,12.5,49.7,1.2,35.8,1.2S10.7,12.5,10.7,26.3
	C10.7,40.2,22,51.4,35.8,51.4 M35.8,11.4c8.2,0,15,6.7,15,15c0,8.2-6.7,15-15,15s-15-6.7-15-15C20.9,18.1,27.6,11.4,35.8,11.4"/>
</svg>
