<svg version="1.1" class="bootcamp-icon" xmlns="http://www.w3.org/2000/svg" xmlns:xlink="http://www.w3.org/1999/xlink" x="0px" y="0px"
	 viewBox="0 0 248 261" style="enable-background:new 0 0 248 261;" xml:space="preserve">
<path d="M6.1,219.2c0.4-1.4,0.8-2.9,1.3-4.3c3.3-10.1,12.6-17.1,23.2-17.3c11.6-0.2,20.9,5.8,24.8,16.3c0.7,1.8,1.5,2.2,3.3,2.2
	c5.1-0.1,10.1,0,15.2,0c0.3-0.6,0.5-1.1,0.7-1.6c3.9-8.5,10.5-13.1,19.9-13.1c9.4-0.1,16.2,4.4,20.2,13c0.5,1.2,1.1,1.7,2.5,1.7
	c4.8-0.1,9.5-0.1,14.3,0c1.3,0,2-0.3,2.6-1.6c3.8-8.6,10.5-13.1,19.9-13.1c9.4-0.1,16.2,4.4,20.1,13.1c0.6,1.3,1.2,1.7,2.5,1.7
	c5.3-0.1,10.6,0,15.8,0c4.4-13.4,16.2-20.2,28.6-18.3c11.9,1.8,21.1,12.1,21.5,23.4c0.5,13.3-7,23.4-19.6,26.5
	c-13,3.2-23.4-2.8-30.6-17.7h-16.7c-2.7,3.5-4.6,7-7.5,9.5c-11.2,9.6-28.2,5.6-34.1-7.9c-0.5-1.2-1.1-1.7-2.5-1.7
	c-4.8,0.1-9.5,0.1-14.3,0c-1.3,0-2,0.3-2.6,1.6c-3.8,8.6-10.6,13.1-19.9,13.1c-9.4,0-16.2-4.5-20.1-13.1c-0.6-1.3-1.3-1.6-2.6-1.6
	c-4.6,0.1-9.2,0.1-13.8,0c-1.6,0-2.2,0.4-2.8,1.9c-3.8,9.9-11.1,15.7-21.6,16.4c-10.6,0.8-19.1-3.4-24.5-12.8
	c-1.5-2.7-2.2-5.8-3.2-8.7C6.1,224.1,6.1,221.7,6.1,219.2"/>
<path d="M126.1,12c24,13.9,48.1,27.7,72.4,41.8c-3.5,2-6.7,3.9-9.9,5.7c-6.2,3.6-12.5,7.2-18.7,10.8c-1.1,0.6-1.9,0.8-3.1,0.1
	C142.9,56.6,119,42.9,95.2,29.1c-0.3-0.2-0.5-0.3-1-0.7c9.5-5.5,18.9-10.9,28.3-16.3H126.1z"/>
<path d="M117.2,194.1c-0.8-0.4-1.5-0.8-2.2-1.1C92.6,180,70.3,167,47.8,154.2c-3.3-1.9-4.8-4.4-4.8-8.2c0.1-25.8,0-51.7,0-77.5
	c0-0.8,0-1.5,0-2.7c1.1,0.6,1.9,1,2.6,1.4c23.3,13.4,46.5,26.9,69.8,40.3c1.1,0.6,1.9,1.2,1.9,2.7c-0.1,27.5,0,54.9,0,82.4
	C117.3,193,117.3,193.4,117.2,194.1"/>
<path d="M205.4,65.9v2.3c0,26,0,52,0,78c0,3.5-1.3,6-4.4,7.8c-22.7,13.1-45.5,26.2-68.2,39.3c-0.4,0.3-0.9,0.5-1.6,0.8
	c0-0.9-0.1-1.5-0.1-2.2c0-27.1,0-54.1,0-81.2c0-1.6,0.4-2.4,1.8-3.2c8.8-4.9,17.4-10,26.1-15c0.6-0.3,1.2-0.6,2.3-1.2
	c0,3-0.1,5.6,0,8.2c0.1,3.7,1.7,5.9,4.8,6.8c4.5,1.4,8.7-1.6,8.8-6.3c0.1-5,0-10,0.1-15c0-0.8,0.5-2,1.2-2.3
	c9.3-5.5,18.7-10.9,28.1-16.3C204.6,66.2,204.8,66.1,205.4,65.9"/>
<path d="M154.4,79.3c-7.9,4.6-15.5,9-23.2,13.4c-2.3,1.3-4.7,3.5-7.1,3.5c-2.3,0-4.6-2.2-6.8-3.5C95.8,80.2,74.3,67.8,52.7,55.4
	c-0.8-0.5-1.6-0.9-2.6-1.6c1.2-0.7,2.2-1.3,3.1-1.9c8.5-4.9,17-9.9,25.5-14.7c0.7-0.4,2.1-0.5,2.8-0.1c24,13.7,47.9,27.6,71.8,41.4
	C153.6,78.7,153.9,78.9,154.4,79.3"/>
</svg>
