<svg version="1.1" class="svg-icon svg-icon--5" xmlns="http://www.w3.org/2000/svg" xmlns:xlink="http://www.w3.org/1999/xlink" x="0px" y="0px"
	 viewBox="0 0 248 261" style="enable-background:new 0 0 248 261;" xml:space="preserve">

<path d="M108.8,153.5h37.4c2.9,0,5.2-2.3,5.2-5.2v-37.2c0-2.9-2.3-5.2-5.2-5.2h-37.4c-2.9,0-5.2,2.3-5.2,5.2v37.2
	C103.7,151.1,106,153.5,108.8,153.5z M114,116.2h27.1v26.9H114V116.2z"/>
<path d="M225.8,30.9c-9.8,0-17.7,8-17.7,17.7s8,17.7,17.7,17.7s17.7-8,17.7-17.7S235.6,30.9,225.8,30.9z M225.8,56.1
	c-4.1,0-7.4-3.3-7.4-7.4c0-4.1,3.3-7.4,7.4-7.4s7.4,3.3,7.4,7.4C233.3,52.8,229.9,56.1,225.8,56.1z"/>
<path d="M220.6,111.9c-7.9,0-14.5,5.1-16.9,12.2h-28.2V87c0-2.9-2.3-5.2-5.2-5.2h-8.1V54.1h27.2c2.9,0,5.2-2.3,5.2-5.2
	s-2.3-5.2-5.2-5.2h-32.4c-2.9,0-5.2,2.3-5.2,5.2v32.9h-19.7V54.1c7.3-2.2,12.6-9,12.6-17c0-9.8-8-17.7-17.7-17.7s-17.7,8-17.7,17.7
	c0,8,5.3,14.8,12.6,17v27.7H84.7c-2.9,0-5.2,2.3-5.2,5.2v7.4H50.8V39.9C58.4,37.9,64,31,64,22.7C64,13,56.1,5,46.3,5
	s-17.7,8-17.7,17.7c0,7.7,5,14.3,11.9,16.7v60.1c0,2.9,2.3,5.2,5.2,5.2h34v20.1H51.1c-2.4-7-9-12.1-16.8-12.1
	c-9.8,0-17.7,8-17.7,17.7s8,17.7,17.7,17.7c8.1,0,15-5.5,17.1-13h28.2v37.1c0,2.9,2.3,5.2,5.2,5.2h6.7v28.5H63.1
	c-2.9,0-5.2,2.3-5.2,5.2s2.3,5.2,5.2,5.2h33.5c2.9,0,5.2-2.3,5.2-5.2v-33.6h20.1v28.2c-7,2.4-12.1,9-12.1,16.8
	c0,9.8,8,17.7,17.7,17.7c9.8,0,17.7-8,17.7-17.7c0-8.2-5.6-15.1-13.1-17.1v-27.9h38.2c2.9,0,5.2-2.3,5.2-5.2v-6.7h27.4v55.3
	c-6.9,2.4-11.9,9-11.9,16.7c0,9.8,8,17.7,17.7,17.7s17.7-8,17.7-17.7c0-8.2-5.7-15.2-13.3-17.2v-60.1c0-2.9-2.3-5.2-5.2-5.2h-32.6
	v-20.8h28c2.1,7.4,8.9,12.9,17.1,12.9c9.8,0,17.7-8,17.7-17.7C238.3,119.9,230.4,111.9,220.6,111.9z M119.6,37.2
	c0-4.1,3.3-7.4,7.4-7.4s7.4,3.3,7.4,7.4s-3.3,7.4-7.4,7.4S119.6,41.2,119.6,37.2z M46.3,15.3c4.1,0,7.4,3.3,7.4,7.4
	c0,4.1-3.3,7.4-7.4,7.4s-7.4-3.3-7.4-7.4C38.9,18.7,42.2,15.3,46.3,15.3z M34.2,137.9c-4.1,0-7.4-3.3-7.4-7.4s3.3-7.4,7.4-7.4
	c4.1,0,7.4,3.3,7.4,7.4S38.3,137.9,34.2,137.9z M135,222.4c0,4.1-3.3,7.4-7.4,7.4c-4.1,0-7.4-3.3-7.4-7.4s3.3-7.4,7.4-7.4
	C131.6,215,135,218.4,135,222.4z M216.2,237.6c0,4.1-3.3,7.4-7.4,7.4s-7.4-3.3-7.4-7.4c0-3.5,2.4-6.4,5.6-7.2
	c0.4,0.1,0.7,0.1,1.1,0.1c0.6,0,1.1-0.1,1.6-0.3C213.4,230.8,216.2,233.9,216.2,237.6z M165.2,167.1H89.9V92.2h75.3V167.1z
	 M220.6,137.1c-4.1,0-7.4-3.3-7.4-7.4c0-4.1,3.3-7.4,7.4-7.4s7.4,3.3,7.4,7.4C228,133.8,224.7,137.1,220.6,137.1z"/>
<path d="M22.1,193.7c-9.8,0-17.7,8-17.7,17.7s8,17.7,17.7,17.7s17.7-8,17.7-17.7S31.9,193.7,22.1,193.7z M22.1,218.9
	c-4.1,0-7.4-3.3-7.4-7.4s3.3-7.4,7.4-7.4s7.4,3.3,7.4,7.4S26.2,218.9,22.1,218.9z"/>
<path d="M197.2,51.3c0.1,0.3,0.3,0.6,0.5,0.9c0.2,0.3,0.4,0.5,0.6,0.8c0.2,0.2,0.5,0.5,0.8,0.6c0.3,0.2,0.6,0.4,0.9,0.5
	c0.3,0.1,0.6,0.2,1,0.3c0.3,0.1,0.7,0.1,1,0.1c0.3,0,0.7,0,1-0.1c0.3-0.1,0.7-0.2,1-0.3c0.3-0.1,0.6-0.3,0.9-0.5
	c0.3-0.2,0.5-0.4,0.8-0.6c0.2-0.2,0.5-0.5,0.6-0.8c0.2-0.3,0.4-0.6,0.5-0.9c0.1-0.3,0.2-0.6,0.3-1c0.1-0.3,0.1-0.7,0.1-1
	c0-0.3,0-0.7-0.1-1c-0.1-0.3-0.2-0.7-0.3-1c-0.1-0.3-0.3-0.6-0.5-0.9c-0.2-0.3-0.4-0.5-0.6-0.8c-0.2-0.2-0.5-0.5-0.8-0.6
	c-0.3-0.2-0.6-0.4-0.9-0.5c-0.3-0.1-0.6-0.2-1-0.3c-0.7-0.1-1.4-0.1-2,0c-0.3,0.1-0.7,0.2-1,0.3c-0.3,0.1-0.6,0.3-0.9,0.5
	c-0.3,0.2-0.5,0.4-0.8,0.6c-0.2,0.2-0.5,0.5-0.6,0.8c-0.2,0.3-0.4,0.6-0.5,0.9c-0.1,0.3-0.2,0.6-0.3,1c-0.1,0.3-0.1,0.7-0.1,1
	c0,0.3,0,0.7,0.1,1C197,50.7,197.1,51,197.2,51.3z"/>
<path d="M53,206.5c-0.3-0.2-0.6-0.4-0.9-0.5c-0.3-0.1-0.6-0.2-1-0.3c-1.7-0.3-3.5,0.2-4.7,1.4c-1,1-1.5,2.3-1.5,3.7
	c0,0.3,0,0.7,0.1,1c0.1,0.3,0.2,0.7,0.3,1c0.1,0.3,0.3,0.6,0.5,0.9c0.2,0.3,0.4,0.5,0.7,0.8c1,1,2.3,1.5,3.6,1.5c0.3,0,0.7,0,1-0.1
	c0.3-0.1,0.7-0.2,1-0.3c0.3-0.1,0.6-0.3,0.9-0.5s0.5-0.4,0.8-0.6c0.2-0.2,0.5-0.5,0.6-0.8c0.2-0.3,0.3-0.6,0.5-0.9
	c0.1-0.3,0.2-0.6,0.3-1c0.1-0.3,0.1-0.7,0.1-1c0-1.4-0.5-2.7-1.5-3.7C53.5,207,53.3,206.7,53,206.5z"/>
</svg>
