<svg version="1.1" class="svg-icon svg-icon--3" xmlns="http://www.w3.org/2000/svg" xmlns:xlink="http://www.w3.org/1999/xlink" x="0px" y="0px"
	 viewBox="0 0 248 261" style="enable-background:new 0 0 248 261;" xml:space="preserve">

<path d="M145.9,189.7H41.2c-10.7,0-19.4-7.8-19.4-17.4V45.9c0-9.6,8.7-17.4,19.4-17.4h133.7c4.3,0,7.9,3,7.9,6.8v7.8
	c0,2.8,2.2,5,5,5s5-2.2,5-5v-7.8c0-9.2-8-16.8-17.9-16.8H41.2c-16.2,0-29.4,12.3-29.4,27.4v126.5c0,15.1,13.2,27.4,29.4,27.4h104.7
	c2.8,0,5-2.2,5-5S148.6,189.7,145.9,189.7z"/>
<path d="M165.9,75.4c0,11.5,9.4,20.9,20.9,20.9s20.9-9.4,20.9-20.9s-9.4-20.9-20.9-20.9S165.9,63.8,165.9,75.4z
	 M197.8,75.4c0,6-4.9,10.9-10.9,10.9s-10.9-4.9-10.9-10.9c0-6,4.9-10.9,10.9-10.9S197.8,69.3,197.8,75.4z"/>
<path d="M215.2,97.9c-0.5-0.1-0.9-0.2-1.4-0.2h-53.1c-1.5,0-2.9,0.7-3.9,1.8L136.7,124h-25.3c-8.9,0-16.2,7.3-16.2,16.2
	s7.3,16.2,16.2,16.2h36.4c1.5,0,2.9-0.7,3.9-1.8l3.3-4.1v77.8c0,7.6,6.2,13.7,13.7,13.7s13.7-6.2,13.7-13.7v-40.6h8.5v40.6
	c0,7.6,6.2,13.7,13.7,13.7h0.8c7.6,0,13.7-6.2,13.7-13.7V166c5.1-3.7,17.1-13.9,19.4-30.3C241.5,112,224.6,100.6,215.2,97.9z
	 M228.7,134.4c-1.1,8-5.5,14.2-9.5,18.4V121c0-2.8-2.2-5-5-5s-5,2.2-5,5v107.3c0,2.1-1.7,3.7-3.7,3.7h-0.8c-2.1,0-3.7-1.7-3.7-3.7
	v-45.6c0-2.8-2.2-5-5-5h-18.5c-2.8,0-5,2.2-5,5v45.6c0,2.1-1.7,3.7-3.7,3.7c-2.1,0-3.7-1.7-3.7-3.7v-91.8c0-2.1-1.3-4-3.3-4.7
	c-2-0.7-4.2-0.1-5.6,1.5l-10.7,13.1h-34c-3.4,0-6.2-2.8-6.2-6.2s2.8-6.2,6.2-6.2h27.7c1.5,0,2.9-0.7,3.9-1.8l20.1-24.5H213
	C216.3,108.9,231,115.3,228.7,134.4z"/>
</svg>
