<svg version="1.1" class="svg-icon svg-icon--2" xmlns="http://www.w3.org/2000/svg" xmlns:xlink="http://www.w3.org/1999/xlink" x="0px" y="0px"
	 viewBox="0 0 248 261" style="enable-background:new 0 0 248 261;" xml:space="preserve">

<path d="M223.9,36.1h-199C14.5,36.1,6,44.6,6,55v138.4c0,10.4,8.5,18.8,18.8,18.8h66.9c2.8,0,5-2.2,5-5s-2.2-5-5-5H24.9
	c-4.9,0-8.8-4-8.8-8.8V55c0-4.9,4-8.8,8.8-8.8h199c4.9,0,8.8,4,8.8,8.8v138.7c0,4.9-4,8.8-8.8,8.8h-10.3c-2.8,0-5,2.2-5,5s2.2,5,5,5
	h10.3c10.4,0,18.8-8.5,18.8-18.8V55C242.7,44.6,234.3,36.1,223.9,36.1z"/>
<path d="M86.8,119.8c2.8,0,5-2.2,5-5V72.9c0-2.8-2.2-5-5-5h-44c-2.8,0-5,2.2-5,5v41.9c0,2.8,2.2,5,5,5H86.8z M47.8,77.9
	h34v31.9h-34V77.9z"/>
<path d="M94.6,140.4c0-2.8-2.2-5-5-5H40.9c-2.8,0-5,2.2-5,5s2.2,5,5,5h48.7C92.3,145.4,94.6,143.2,94.6,140.4z"/>
<path d="M39.8,160.2c-2.8,0-5,2.2-5,5s2.2,5,5,5h47.4c2.8,0,5-2.2,5-5s-2.2-5-5-5H39.8z"/>
<path d="M160.7,165.5c13.1,0,23.8-10.7,23.8-23.8s-10.7-23.8-23.8-23.8s-23.8,10.7-23.8,23.8S147.5,165.5,160.7,165.5z
	 M160.7,127.8c7.6,0,13.8,6.2,13.8,13.8s-6.2,13.8-13.8,13.8c-7.6,0-13.8-6.2-13.8-13.8S153.1,127.8,160.7,127.8z"/>
<path d="M197.3,172.3c7-8.3,11.2-19,11.2-30.6c0-26.3-21.4-47.8-47.8-47.8c-26.3,0-47.8,21.4-47.8,47.8
	c0,11.4,4.1,22,10.8,30.2l-15.4,53.8c-0.5,1.9,0.1,3.9,1.6,5.2s3.6,1.6,5.4,0.7l15-7l9.4,14.2c0.9,1.4,2.5,2.2,4.2,2.2
	c0.3,0,0.5,0,0.8-0.1c1.9-0.3,3.5-1.8,4-3.7l11.8-44.6l12.2,43.6c0.5,1.8,2,3.2,3.9,3.6c0.3,0.1,0.6,0.1,0.9,0.1c1.6,0,3.1-0.7,4-2
	l9.4-12.9l15.1,6.3c1.8,0.7,3.8,0.4,5.3-0.9s2-3.3,1.5-5.1L197.3,172.3z M160.7,103.9c20.8,0,37.8,16.9,37.8,37.8
	s-16.9,37.8-37.8,37.8s-37.8-16.9-37.8-37.8S139.9,103.9,160.7,103.9z M141.8,223.8l-5.6-8.5c-1.4-2.1-4.1-2.8-6.3-1.8l-8.9,4.2
	l10.9-38.1c5.6,4.2,12.1,7.3,19.2,8.7L141.8,223.8z M191.1,214.2c-2.1-0.9-4.6-0.2-6,1.7l-5.7,7.7l-9.8-35
	c7.2-1.4,13.8-4.3,19.5-8.6l11,37.9L191.1,214.2z"/>
</svg>
