<svg version="1.1" class="svg-icon svg-icon--7" xmlns="http://www.w3.org/2000/svg" xmlns:xlink="http://www.w3.org/1999/xlink" x="0px" y="0px"
	 viewBox="0 0 248 261" style="enable-background:new 0 0 248 261;" xml:space="preserve">

<path d="M240.9,199l-21.3-20.5c-2.2-2.1-5.8-2.1-7.9,0.1c-2.1,2.2-2.1,5.8,0.1,7.9l11.3,10.9h-40.5
	c-3.1,0-5.6,2.5-5.6,5.6s2.5,5.6,5.6,5.6h40.6l-11.7,11.4c-2.2,2.2-2.3,5.7-0.1,7.9c1.1,1.1,2.5,1.7,4,1.7c1.4,0,2.8-0.5,3.9-1.6
	l21.5-21c1.1-1.1,1.7-2.5,1.7-4C242.6,201.5,241.9,200.1,240.9,199z"/>
<path d="M202.5,148.9c15.3-1.2,27.4-14.1,27.4-29.7c0-5.6-1.6-11-4.5-15.7l7.3-7.8c2.1-2.3,2-5.8-0.3-7.9
	c-2.3-2.1-5.8-2-7.9,0.3l-24.4,26.2l-4.4-4.7c-2.1-2.3-5.6-2.4-7.9-0.3c-2.3,2.1-2.4,5.6-0.3,7.9l8.5,9.1c1.1,1.1,2.5,1.8,4.1,1.8
	c0,0,0,0,0,0c1.6,0,3-0.6,4.1-1.8l13.2-14.1c0.9,2.2,1.4,4.6,1.4,7c0,10.3-8.4,18.6-18.6,18.6c-10.3,0-18.6-8.4-18.6-18.6
	c0-10.3,8.4-18.6,18.6-18.6c1.5,0,3,0.2,4.4,0.5c3,0.7,6-1.1,6.8-4.1c0.7-3-1.1-6-4.1-6.8c-2.3-0.6-4.7-0.8-7-0.8
	c-0.5,0-1.1,0-1.6,0c-12.9-28.1-40-46.7-70.6-48.9L140,28.6c2.2-2.2,2.2-5.7,0.1-7.9c-2.2-2.2-5.7-2.2-7.9-0.1l-22,21.6
	c-1.1,1.1-1.7,2.5-1.7,4c0,1.5,0.6,3,1.7,4l22.2,21.2c1.1,1,2.5,1.5,3.9,1.5c1.5,0,3-0.6,4.1-1.7c2.1-2.2,2-5.8-0.2-7.9l-12.2-11.6
	c25.5,2.1,48.1,17.4,59.5,40.5c-10.1,4.8-17.1,15.1-17.1,27c0,13.3,8.8,24.7,20.9,28.5c-9.9,29.6-37.6,49.8-69.2,49.8H52.7v-12.8
	c0-3.1-2.5-5.6-5.6-5.6H10.7c-3.1,0-5.6,2.5-5.6,5.6v36.8c0,3.1,2.5,5.6,5.6,5.6h36.4c3.1,0,5.6-2.5,5.6-5.6v-12.8h69.2
	C159.2,208.6,191.8,184.2,202.5,148.9z M41.5,215.8H16.3v-25.6h25.2V215.8z"/>
<path d="M66.6,185.9c1.4,0,2.9-0.6,4-1.7c2.2-2.2,2.2-5.7,0-7.9c-13.9-13.8-21.6-32.2-21.6-51.8
	c0-29.4,17.5-55.8,44.6-67.3c2.8-1.2,4.2-4.5,3-7.3c-1.2-2.8-4.5-4.2-7.3-3c-31.2,13.2-51.4,43.7-51.4,77.6
	c0,22.6,8.9,43.9,24.9,59.8C63.8,185.3,65.2,185.9,66.6,185.9z"/>
</svg>
