<svg version="1.1" class="svg-icon svg-icon--1" xmlns="http://www.w3.org/2000/svg" xmlns:xlink="http://www.w3.org/1999/xlink" x="0px" y="0px"
	 viewBox="0 0 248 261" style="enable-background:new 0 0 248 261;" xml:space="preserve">
<path d="M56.7,100.9h77.9v30.2c0,2,1.2,3.8,3,4.6c0.6,0.3,1.3,0.4,2,0.4c1.3,0,2.5-0.5,3.5-1.4l35.1-33.8h13.3
	c6.7,0,12.2-5.5,12.2-12.2V21.8c0-6.7-5.5-12.2-12.2-12.2H56.7c-6.7,0-12.2,5.5-12.2,12.2v66.8C44.5,95.4,50,100.9,56.7,100.9z
	 M54.5,21.8c0-1.2,1-2.2,2.2-2.2h134.8c1.2,0,2.2,1,2.2,2.2v66.8c0,1.2-1,2.2-2.2,2.2h-15.3c-1.3,0-2.5,0.5-3.5,1.4l-28.1,27.1V95.9
	c0-2.8-2.2-5-5-5H56.7c-1.2,0-2.2-1-2.2-2.2V21.8z"/>
<rect x="104.6" y="51.5" width="9.4" height="9.4"/>
<rect x="121.6" y="51.5" width="9.4" height="9.4"/>
<rect x="138.6" y="51.5" width="9.4" height="9.4"/>
<path d="M241.1,219.6h-13.7V104.9c0-7.6-6.2-13.9-13.9-13.9h-3.7c-2.8,0-5,2.2-5,5s2.2,5,5,5h3.7c2.1,0,3.9,1.7,3.9,3.9
	v114.6H149c-1.3,0-2.6,0.5-3.5,1.5l-5.8,5.8H108l-5.9-5.6c-0.9-0.9-2.2-1.4-3.4-1.4H32c0.1-0.4,0.2-0.8,0.2-1.3V104.9
	c0-2.1,1.7-3.9,3.9-3.9h3.1c2.8,0,5-2.2,5-5s-2.2-5-5-5H36c-7.6,0-13.9,6.2-13.9,13.9v113.6c0,0.4,0.1,0.9,0.2,1.3H7
	c-1.4,0-2.6,0.5-3.6,1.5c-0.9,1-1.5,2.3-1.4,3.6l0.2,6.3c0,1.3,0.6,2.5,1.5,3.4l15.9,15.9c0.9,0.9,2.2,1.5,3.5,1.5h203.1
	c1.3,0,2.6-0.5,3.5-1.5l15-15c0.9-0.9,1.5-2.2,1.5-3.5v-7.5C246.1,221.8,243.9,219.6,241.1,219.6z M236.1,230l-12,12H25.1L13,229.8
	h83.7l5.9,5.6c0.9,0.9,2.2,1.4,3.4,1.4h35.7c1.3,0,2.6-0.5,3.5-1.5l5.8-5.8h85V230z"/>
<path d="M49.4,188.4c0,7.6,6.2,13.9,13.9,13.9h54.9c7.6,0,13.9-6.2,13.9-13.9v-12.9l-23.1-13c3-4,4.7-8.6,4.7-13.2
	v-11.1c0-11.3-9.2-20.6-20.6-20.6h-4.3c-11.3,0-20.6,9.2-20.6,20.6v11.1c0,4.8,1.6,9.3,4.3,13.1l-23.2,13.1V188.4z M78.3,138.3
	c0-5.8,4.7-10.6,10.6-10.6h4.3c5.8,0,10.6,4.7,10.6,10.6v11.1c0,3-1.5,6.2-4.1,8.7c-2.6,2.6-5.9,4.1-8.9,4.1c0,0,0,0-0.1,0
	c-5.9,0-12.4-5.6-12.4-12.9V138.3z M59.4,181.4l21.1-11.9c3.1,1.7,6.5,2.7,10.1,2.7c0,0,0.1,0,0.1,0c3.5,0,7-1,10.3-2.8l21.1,11.9
	v7.1c0,2.1-1.7,3.9-3.9,3.9H63.3c-2.1,0-3.9-1.7-3.9-3.9V181.4z"/>
<polygon points="142.9,202.2 200.6,202.2 200.6,142 190.6,142 190.6,192.2 142.9,192.2 "/>
<rect x="149.5" y="145.4" width="33.4" height="10"/>
<rect x="149.5" y="160.3" width="33.4" height="10"/>
<rect x="149.5" y="176.1" width="33.4" height="10"/>
</svg>
