<svg version="1.1" class="svg-icon svg-icon--4" xmlns="http://www.w3.org/2000/svg" xmlns:xlink="http://www.w3.org/1999/xlink" x="0px" y="0px"
	 viewBox="0 0 248 261" style="enable-background:new 0 0 248 261;" xml:space="preserve">

<path d="M226.1,115h-5c-1.2-27.5-12.4-53.1-31.8-72.6c-20.3-20.3-47.2-31.5-75.7-31.5c-0.1,0-0.3,0-0.4,0
	c0,0-0.1,0-0.1,0c-0.2,0-0.3,0-0.5,0C53.7,11.5,6,60.2,6,120c0,51.2,35.2,95.4,84.1,106.5v5.6c0,8.8,7.1,15.9,15.9,15.9h120.1
	c8.8,0,15.9-7.1,15.9-15.9V130.9C242.1,122.2,234.9,115,226.1,115z M232.1,130.9v9.2h-73.3V125h67.3
	C229.4,125,232.1,127.7,232.1,130.9z M109.7,140.1h-9.6v-9.2c0-3.3,2.7-5.9,5.9-5.9h3.7V140.1z M148.8,140.1h-29.1v-23.8h29.1V140.1
	z M158.8,115v-1.3c0-4.1-3.3-7.4-7.5-7.4h-34.2c-4.1,0-7.4,3.3-7.4,7.4v1.3H106c-8.8,0-15.9,7.1-15.9,15.9v65.5
	c-8.2-17.8-13.3-43.9-13.9-71.8h10.1c2.8,0,5-2.2,5-5s-2.2-5-5-5H76.2c0.3-14.3,1.8-28.1,4.3-40.6h65c1.6,8,2.8,16.5,3.6,25.4
	c0.2,2.8,2.6,4.8,5.4,4.6c2.8-0.2,4.8-2.6,4.6-5.4c-0.7-8.5-1.8-16.8-3.3-24.6h44.3c6.4,12.4,10.4,26.2,11.1,40.9H158.8z
	 M16.1,124.7h50.1c0.3,14.7,1.7,28.8,4.2,41.7H27.3C20.8,153.7,16.8,139.6,16.1,124.7z M27.1,74.1h43.2c-2.4,12.6-3.9,26.3-4.1,40.6
	H16.1C16.9,100.1,20.8,86.3,27.1,74.1z M112.8,20.9c0.1,0,0.3,0,0.4,0c7.7,0.1,15.5,7.5,22.1,21c3.1,6.4,5.8,13.9,8,22.2H82.9
	c1.5-5.6,3.2-10.9,5.2-15.8C95,31.1,104,21.2,112.8,20.9z M194.1,64.1h-40.5c-2.5-10-5.6-19-9.3-26.6c-2.7-5.5-5.6-10.2-8.7-14.1
	C159.6,29.1,180.4,43.9,194.1,64.1z M90.5,23.7c-4.3,5.4-8.3,12.3-11.7,20.8c-2.4,6-4.5,12.5-6.2,19.5H33.1
	C46.5,44.3,66.8,29.6,90.5,23.7z M33.3,176.4h39.4c4.1,16.4,10.1,30.2,17.4,39.5v0.4C66.5,210.3,46.5,195.8,33.3,176.4z M226.1,238
	H106c-3.3,0-5.9-2.7-5.9-5.9v-81.9h132v81.9C232.1,235.3,229.4,238,226.1,238z"/>
<path d="M116.9,169.2h35.4c2.8,0,5-2.2,5-5s-2.2-5-5-5h-35.4c-2.8,0-5,2.2-5,5S114.1,169.2,116.9,169.2z"/>
<path d="M213.1,178.9h-93.8c-5.3,0-9.6,4.3-9.6,9.6v29.7c0,5.3,4.3,9.6,9.6,9.6h93.8c5.3,0,9.6-4.3,9.6-9.6v-29.7
	C222.7,183.2,218.4,178.9,213.1,178.9z M212.7,217.9h-93v-29h93V217.9z"/>
<path d="M207.9,136.5c2.2,0,4-1.8,4-4c0-2.2-1.8-4-4-4c-2.2,0-4,1.8-4,4C203.9,134.7,205.7,136.5,207.9,136.5z"/>
<circle cx="222.7" cy="132.5" r="4"/>
</svg>
