<svg version="1.1" class="svg-icon svg-icon--6" xmlns="http://www.w3.org/2000/svg" xmlns:xlink="http://www.w3.org/1999/xlink" x="0px" y="0px"
	 viewBox="0 0 248 261" style="enable-background:new 0 0 248 261;" xml:space="preserve">

<path d="M93.7,65.1V47.1h27l-9,8.9c-2,1.9-2,5.1-0.1,7.1c1,1,2.3,1.5,3.6,1.5c1.3,0,2.5-0.5,3.5-1.4l17.8-17.4
	c1-0.9,1.5-2.3,1.5-3.6c0-1.4-0.6-2.7-1.6-3.6l-18-17.1c-2-1.9-5.2-1.8-7.1,0.2c-1.9,2-1.8,5.2,0.2,7.1l8.9,8.5H93.7V19
	c0-2.8-2.2-5-5-5H41.8c-2.8,0-5,2.2-5,5v46.1c0,2.8,2.2,5,5,5h46.8C91.4,70.1,93.7,67.9,93.7,65.1z M46.8,60.1V24h36.8v13.1h-4.2
	c-2.8,0-5,2.2-5,5s2.2,5,5,5h4.2v13.1H46.8z"/>
<path d="M219.9,14H173c-2.8,0-5,2.2-5,5v46.1c0,2.8,2.2,5,5,5h17.5v21.2h-73.4c-2.8,0-5,2.2-5,5v29.9l-8.9-9
	c-1.9-2-5.1-2-7.1-0.1c-2,1.9-2,5.1-0.1,7.1l17.4,17.8c0.9,1,2.2,1.5,3.6,1.5c0,0,0,0,0,0c1.4,0,2.7-0.6,3.6-1.6l17.1-18
	c1.9-2,1.8-5.2-0.2-7.1c-2-1.9-5.2-1.8-7.1,0.2l-8.5,8.9v-24.7h73.4c2.8,0,5-2.2,5-5V70.1h19.3c2.8,0,5-2.2,5-5V19
	C224.9,16.2,222.6,14,219.9,14z M214.9,60.1h-14.3v-17c0-2.8-2.2-5-5-5s-5,2.2-5,5v17H178V24h36.8V60.1z"/>
<path d="M160.8,146l-50.7,54.4l-12.6-13.5c-1.9-2-5-2.1-7.1-0.3c-2,1.9-2.1,5-0.3,7.1l16.2,17.4c0.9,1,2.3,1.6,3.7,1.6
	c0,0,0,0,0,0c1.4,0,2.7-0.6,3.7-1.6l30.5-32.8c4.6,6.8,7,14.8,7,23c0,22.7-18.5,41.2-41.2,41.2s-41.2-18.5-41.2-41.2
	s18.5-41.2,41.2-41.2c3.3,0,6.6,0.4,9.7,1.2c2.7,0.6,5.4-1,6-3.7c0.6-2.7-1-5.4-3.7-6c-3.9-1-8-1.4-12.1-1.4
	c-28.2,0-51.2,23-51.2,51.2s23,51.2,51.2,51.2s51.2-23,51.2-51.2c0-11-3.6-21.7-10.1-30.5l16.9-18.1c1.9-2,1.8-5.2-0.2-7.1
	C165.9,143.9,162.7,144,160.8,146z"/>
</svg>
