<svg version="1.1" class="svg-icon svg-icon--9" xmlns="http://www.w3.org/2000/svg" xmlns:xlink="http://www.w3.org/1999/xlink" x="0px" y="0px"
	 viewBox="0 0 248 261" style="enable-background:new 0 0 248 261;" xml:space="preserve">

<path d="M94.8,196.7H27.1c-6.2,0-11.3-5.1-11.3-11.3V87.2h177.8v18.7c0,2.8,2.2,5,5,5s5-2.2,5-5V83.4
	c0.1-0.4,0.2-0.8,0.2-1.2s-0.1-0.8-0.2-1.2V57.9c0-11.8-9.6-21.3-21.3-21.3h-17.7V21c0-2.8-2.2-5-5-5s-5,2.2-5,5v15.6H55.1V21
	c0-2.8-2.2-5-5-5s-5,2.2-5,5v15.6h-18c-11.8,0-21.3,9.6-21.3,21.3v127.5c0,11.8,9.6,21.3,21.3,21.3h67.7c2.8,0,5-2.2,5-5
	S97.6,196.7,94.8,196.7z M27.1,46.6h18v15.6c0,2.8,2.2,5,5,5s5-2.2,5-5V46.6h99.4v15.6c0,2.8,2.2,5,5,5s5-2.2,5-5V46.6h17.7
	c6.2,0,11.3,5.1,11.3,11.3v19.3H15.7V57.9C15.7,51.6,20.8,46.6,27.1,46.6z"/>
<path d="M180,126.8c-35.2,0-63.9,28.7-63.9,63.9s28.7,63.9,63.9,63.9S244,226,244,190.7S215.3,126.8,180,126.8z
	 M180,244.7c-29.7,0-53.9-24.2-53.9-53.9s24.2-53.9,53.9-53.9S234,161,234,190.7S209.8,244.7,180,244.7z"/>
<path d="M203.3,165.9l-32.4,37.6l-17.9-18c-1.9-2-5.1-2-7.1,0c-2,1.9-2,5.1,0,7.1l21.7,21.8c0.9,0.9,2.2,1.5,3.5,1.5
	c0.1,0,0.1,0,0.2,0c1.4,0,2.7-0.7,3.6-1.7l36-41.7c1.8-2.1,1.6-5.2-0.5-7.1C208.3,163.6,205.1,163.8,203.3,165.9z"/>
</svg>
